<?xml version="1.0" encoding="UTF-8" standalone="no"?>
<svg
   xmlns:dc="http://purl.org/dc/elements/1.1/"
   xmlns:cc="http://creativecommons.org/ns#"
   xmlns:rdf="http://www.w3.org/1999/02/22-rdf-syntax-ns#"
   xmlns:svg="http://www.w3.org/2000/svg"
   xmlns="http://www.w3.org/2000/svg"
   xmlns:sodipodi="http://sodipodi.sourceforge.net/DTD/sodipodi-0.dtd"
   xmlns:inkscape="http://www.inkscape.org/namespaces/inkscape"
   viewBox="0 0 470.31195 672.75836"
   version="1.1"
   id="svg84"
   sodipodi:docname="out.svg"
   inkscape:version="0.92.1 r15371"
   width="470.31195"
   height="672.75836"
   inkscape:export-filename="/home/henrik/private/viz-pub/careful-sleep/out.png"
   inkscape:export-xdpi="300"
   inkscape:export-ydpi="300">
  <metadata
     id="metadata88">
    <rdf:RDF>
      <cc:Work
         rdf:about="">
        <dc:format>image/svg+xml</dc:format>
        <dc:type
           rdf:resource="http://purl.org/dc/dcmitype/StillImage" />
        <dc:title></dc:title>
      </cc:Work>
    </rdf:RDF>
  </metadata>
  <sodipodi:namedview
     pagecolor="#ffffff"
     bordercolor="#666666"
     borderopacity="1"
     objecttolerance="10"
     gridtolerance="10"
     guidetolerance="10"
     inkscape:pageopacity="0"
     inkscape:pageshadow="2"
     inkscape:window-width="3200"
     inkscape:window-height="1671"
     id="namedview86"
     showgrid="false"
     inkscape:zoom="1.8730159"
     inkscape:cx="233.5807"
     inkscape:cy="366.89052"
     inkscape:window-x="0"
     inkscape:window-y="55"
     inkscape:window-maximized="1"
     inkscape:current-layer="svg84"
     fit-margin-top="0"
     fit-margin-left="0"
     fit-margin-right="0"
     fit-margin-bottom="0" />
  <defs
     id="defs4">
    <style
       type="text/css"
       id="style2"><![CDATA[
    line, polyline, path, rect, circle {
      fill: none;
      stroke: #000000;
      stroke-linecap: round;
      stroke-linejoin: round;
      stroke-miterlimit: 10.00;
    }
  ]]></style>
  </defs>
  <rect
     width="100.31419%"
     height="101.70194%"
     style="fill:#ffffff;stroke:none;stroke-width:1.01005673;stroke-linecap:round;stroke-linejoin:round;stroke-miterlimit:10"
     id="rect6"
     x="0"
     y="0" />
  <defs
     id="defs11">
    <clipPath
       id="cpNTUuMjI3Mnw0MjYuMDIyfDQzNi4zNTl8MjMuMzUzOA==">
      <rect
         x="55.23"
         y="23.35"
         width="370.79999"
         height="413.01001"
         id="rect8"
         style="fill:none;stroke:#000000;stroke-linecap:round;stroke-linejoin:round;stroke-miterlimit:10" />
    </clipPath>
  </defs>
  <polyline
     points="55.23,417.59 426.02,417.59 "
     style="fill:none;stroke:#cccccc;stroke-width:0.31999999;stroke-linecap:butt;stroke-linejoin:round;stroke-miterlimit:10"
     clip-path="url(#cpNTUuMjI3Mnw0MjYuMDIyfDQzNi4zNTl8MjMuMzUzOA==)"
     id="polyline13"
     transform="translate(13.309514,161.09204)" />
  <polyline
     points="55.23,317.46 426.02,317.46 "
     style="fill:none;stroke:#cccccc;stroke-width:0.31999999;stroke-linecap:butt;stroke-linejoin:round;stroke-miterlimit:10"
     clip-path="url(#cpNTUuMjI3Mnw0MjYuMDIyfDQzNi4zNTl8MjMuMzUzOA==)"
     id="polyline15"
     transform="translate(13.309514,161.09204)" />
  <polyline
     points="55.23,217.34 426.02,217.34 "
     style="fill:none;stroke:#cccccc;stroke-width:0.31999999;stroke-linecap:butt;stroke-linejoin:round;stroke-miterlimit:10"
     clip-path="url(#cpNTUuMjI3Mnw0MjYuMDIyfDQzNi4zNTl8MjMuMzUzOA==)"
     id="polyline17"
     transform="translate(13.309514,161.09204)" />
  <polyline
     points="55.23,117.22 426.02,117.22 "
     style="fill:none;stroke:#cccccc;stroke-width:0.31999999;stroke-linecap:butt;stroke-linejoin:round;stroke-miterlimit:10"
     clip-path="url(#cpNTUuMjI3Mnw0MjYuMDIyfDQzNi4zNTl8MjMuMzUzOA==)"
     id="polyline19"
     transform="translate(13.309514,161.09204)" />
  <polyline
     points="55.23,367.53 426.02,367.53 "
     style="fill:none;stroke:#cccccc;stroke-width:0.63999999;stroke-linecap:butt;stroke-linejoin:round;stroke-miterlimit:10"
     clip-path="url(#cpNTUuMjI3Mnw0MjYuMDIyfDQzNi4zNTl8MjMuMzUzOA==)"
     id="polyline21"
     transform="translate(13.309514,161.09204)" />
  <polyline
     points="55.23,267.40 426.02,267.40 "
     style="fill:none;stroke:#cccccc;stroke-width:0.63999999;stroke-linecap:butt;stroke-linejoin:round;stroke-miterlimit:10"
     clip-path="url(#cpNTUuMjI3Mnw0MjYuMDIyfDQzNi4zNTl8MjMuMzUzOA==)"
     id="polyline23"
     transform="translate(13.309514,161.09204)" />
  <polyline
     points="55.23,167.28 426.02,167.28 "
     style="fill:none;stroke:#cccccc;stroke-width:0.63999999;stroke-linecap:butt;stroke-linejoin:round;stroke-miterlimit:10"
     clip-path="url(#cpNTUuMjI3Mnw0MjYuMDIyfDQzNi4zNTl8MjMuMzUzOA==)"
     id="polyline25"
     transform="translate(13.309514,161.09204)" />
  <polyline
     points="55.23,67.16 426.02,67.16 "
     style="fill:none;stroke:#cccccc;stroke-width:0.63999999;stroke-linecap:butt;stroke-linejoin:round;stroke-miterlimit:10"
     clip-path="url(#cpNTUuMjI3Mnw0MjYuMDIyfDQzNi4zNTl8MjMuMzUzOA==)"
     id="polyline27"
     transform="translate(13.309514,161.09204)" />
  <polyline
     points="146.99,436.36 146.99,23.35 "
     style="fill:none;stroke:#cccccc;stroke-width:0.63999999;stroke-linecap:butt;stroke-linejoin:round;stroke-miterlimit:10"
     clip-path="url(#cpNTUuMjI3Mnw0MjYuMDIyfDQzNi4zNTl8MjMuMzUzOA==)"
     id="polyline29"
     transform="translate(13.309514,161.09204)" />
  <polyline
     points="240.62,436.36 240.62,23.35 "
     style="fill:none;stroke:#cccccc;stroke-width:0.63999999;stroke-linecap:butt;stroke-linejoin:round;stroke-miterlimit:10"
     clip-path="url(#cpNTUuMjI3Mnw0MjYuMDIyfDQzNi4zNTl8MjMuMzUzOA==)"
     id="polyline31"
     transform="translate(13.309514,161.09204)" />
  <polyline
     points="334.26,436.36 334.26,23.35 "
     style="fill:none;stroke:#cccccc;stroke-width:0.63999999;stroke-linecap:butt;stroke-linejoin:round;stroke-miterlimit:10"
     clip-path="url(#cpNTUuMjI3Mnw0MjYuMDIyfDQzNi4zNTl8MjMuMzUzOA==)"
     id="polyline33"
     transform="translate(13.309514,161.09204)" />
  <polyline
     points="72.08,392.56 72.46,392.56 72.83,392.56 73.21,392.56 73.58,392.56 73.95,392.56 74.33,392.56 74.70,392.56 75.08,388.38 75.45,385.05 75.83,384.21 76.20,382.54 76.58,380.04 76.95,380.04 77.33,380.04 77.70,380.04 78.07,375.87 78.45,375.87 78.82,375.87 79.20,371.70 79.57,371.70 79.95,368.36 80.32,367.53 80.70,367.53 81.07,367.53 81.45,367.53 81.82,367.53 82.19,367.53 82.57,367.53 82.94,367.53 83.32,367.53 83.69,367.53 84.07,367.53 84.44,367.53 84.82,367.53 85.19,367.53 85.57,367.53 85.94,367.53 86.31,367.53 86.69,367.53 87.06,367.53 87.44,365.86 87.81,363.35 88.19,361.68 88.56,359.18 88.94,359.18 89.31,359.18 89.68,355.01 90.06,355.01 90.43,355.01 90.81,355.01 91.18,355.01 91.56,355.01 91.93,350.84 92.31,350.84 92.68,350.84 93.06,348.33 93.43,346.67 93.80,346.67 94.18,345.00 94.55,342.49 94.93,342.49 95.30,342.49 95.68,342.49 96.05,342.49 96.43,342.49 96.80,342.49 97.18,342.49 97.55,342.49 97.92,342.49 98.30,342.49 98.67,342.49 99.05,342.49 99.42,342.49 99.80,342.49 100.17,342.49 100.55,342.49 100.92,342.49 101.30,342.49 101.67,342.49 102.04,342.49 102.42,342.49 102.79,339.99 103.17,338.32 103.54,338.32 103.92,335.82 104.29,334.15 104.67,334.15 105.04,334.15 105.42,334.15 105.79,331.65 106.16,329.98 106.54,329.98 106.91,329.98 107.29,329.98 107.66,329.98 108.04,329.98 108.41,329.98 108.79,329.98 109.16,327.48 109.54,325.81 109.91,325.81 110.28,325.81 110.66,325.81 111.03,324.97 111.41,321.83 111.78,321.64 112.16,321.64 112.53,321.64 112.91,320.80 113.28,319.13 113.66,317.46 114.03,317.46 114.40,317.46 114.78,317.46 115.15,317.46 115.53,317.46 115.90,317.46 116.28,317.46 116.65,317.46 117.03,317.46 117.40,317.46 117.78,317.46 118.15,317.46 118.52,317.46 118.90,317.46 119.27,317.46 119.65,317.46 120.02,317.46 120.40,317.46 120.77,317.46 121.15,317.46 121.52,317.46 121.90,317.46 122.27,317.46 122.64,317.46 123.02,317.46 123.39,317.46 123.77,317.46 124.14,317.46 124.52,317.46 124.89,317.46 125.27,317.46 125.64,317.46 126.02,317.46 126.39,317.46 126.76,317.46 127.14,317.46 127.51,317.46 127.89,317.46 128.26,317.46 128.64,316.63 129.01,314.13 129.39,313.29 129.76,313.29 130.14,313.29 130.51,310.79 130.88,309.12 131.26,309.12 131.63,309.12 132.01,309.12 132.38,309.12 132.76,307.45 133.13,304.95 133.51,304.95 133.88,304.95 134.26,304.95 134.63,304.95 135.00,304.95 135.38,304.95 135.75,304.95 136.13,304.95 136.50,304.95 136.88,304.95 137.25,304.11 137.63,301.61 138.00,300.78 138.38,300.78 138.75,300.78 139.12,300.78 139.50,300.78 139.87,300.78 140.25,298.27 140.62,296.60 141.00,296.60 141.37,296.60 141.75,296.60 142.12,296.60 142.50,295.77 142.87,294.10 143.24,292.43 143.62,292.43 143.99,292.43 144.37,292.43 144.74,292.43 145.12,292.43 145.49,292.43 145.87,292.43 146.24,292.43 146.62,292.43 146.99,292.43 147.36,292.43 147.74,292.43 148.11,292.43 148.49,292.43 148.86,292.43 149.24,292.43 149.61,292.43 149.99,292.43 150.36,292.43 150.74,292.43 151.11,292.43 151.48,292.43 151.86,292.43 152.23,292.43 152.61,292.43 152.98,292.43 153.36,292.43 153.73,292.43 154.11,292.43 154.48,292.43 154.86,292.43 155.23,292.43 155.60,292.43 155.98,292.43 156.35,292.43 156.73,292.43 157.10,292.43 157.48,292.43 157.85,292.43 158.23,292.43 158.60,292.43 158.97,289.93 159.35,288.26 159.72,288.26 160.10,288.26 160.47,288.26 160.85,286.59 161.22,284.09 161.60,284.09 161.97,284.09 162.35,284.09 162.72,284.09 163.09,284.09 163.47,284.09 163.84,283.26 164.22,281.59 164.59,279.92 164.97,279.92 165.34,279.92 165.72,279.92 166.09,279.92 166.47,279.92 166.84,279.92 167.21,279.92 167.59,279.92 167.96,279.92 168.34,279.92 168.71,279.92 169.09,279.92 169.46,279.92 169.84,277.41 170.21,275.75 170.59,275.75 170.96,275.75 171.33,275.75 171.71,275.75 172.08,275.75 172.46,275.75 172.83,275.75 173.21,273.24 173.58,271.57 173.96,271.57 174.33,271.57 174.71,271.57 175.08,271.57 175.45,271.57 175.83,270.74 176.20,269.07 176.58,268.24 176.95,267.40 177.33,267.40 177.70,267.40 178.08,267.40 178.45,267.40 178.83,267.40 179.20,267.40 179.57,267.40 179.95,267.40 180.32,267.40 180.70,267.40 181.07,267.40 181.45,267.40 181.82,267.40 182.20,267.40 182.57,267.40 182.95,267.40 183.32,267.40 183.69,267.40 184.07,267.40 184.44,267.40 184.82,267.40 185.19,267.40 185.57,267.40 185.94,267.40 186.32,267.40 186.69,267.40 187.07,267.40 187.44,267.40 187.81,267.40 188.19,267.40 188.56,267.40 188.94,267.40 189.31,267.40 189.69,267.40 190.06,267.40 190.44,267.40 190.81,267.40 191.19,267.40 191.56,267.40 191.93,267.40 192.31,267.40 192.68,267.40 193.06,267.40 193.43,267.40 193.81,267.40 194.18,267.40 194.56,267.40 194.93,267.40 195.31,267.40 195.68,267.40 196.05,267.40 196.43,267.40 196.80,267.40 197.18,267.40 197.55,267.40 197.93,267.40 198.30,267.40 198.68,267.40 199.05,267.40 199.43,267.40 199.80,264.90 200.17,263.48 200.55,263.23 200.92,263.23 201.30,263.23 201.67,263.23 202.05,262.40 202.42,260.73 202.80,259.06 203.17,259.06 203.55,259.06 203.92,259.06 204.29,259.06 204.67,259.06 205.04,259.06 205.42,258.22 205.79,255.72 206.17,254.89 206.54,254.89 206.92,254.89 207.29,254.89 207.67,254.89 208.04,254.89 208.41,254.89 208.79,254.89 209.16,254.89 209.54,254.89 209.91,254.89 210.29,254.89 210.66,254.89 211.04,254.89 211.41,254.05 211.79,252.38 212.16,250.72 212.53,250.72 212.91,250.72 213.28,250.72 213.66,250.72 214.03,250.72 214.41,250.72 214.78,250.72 215.16,249.05 215.53,247.38 215.91,246.54 216.28,246.54 216.65,246.54 217.03,246.54 217.40,246.54 217.78,246.54 218.15,244.04 218.53,244.04 218.90,242.37 219.28,242.37 219.65,242.37 220.03,242.37 220.40,242.37 220.77,242.37 221.15,242.37 221.52,242.37 221.90,242.37 222.27,242.37 222.65,242.37 223.02,242.37 223.40,242.37 223.77,242.37 224.15,242.37 224.52,242.37 224.89,242.37 225.27,242.37 225.64,242.37 226.02,242.37 226.39,242.37 226.77,242.37 227.14,242.37 227.52,242.37 227.89,242.37 228.26,242.37 228.64,242.37 229.01,242.37 229.39,242.37 229.76,242.37 230.14,242.37 230.51,242.37 230.89,242.37 231.26,242.37 231.64,242.37 232.01,242.37 232.38,242.37 232.76,242.37 233.13,242.37 233.51,242.37 233.88,242.37 234.26,242.37 234.63,242.37 235.01,242.37 235.38,242.37 235.76,242.37 236.13,242.37 236.50,242.37 236.88,242.37 237.25,242.37 237.63,240.70 238.00,238.20 238.38,238.20 238.75,238.20 239.13,238.20 239.50,238.20 239.88,236.53 240.25,234.86 240.62,234.03 241.00,234.03 241.37,234.03 241.75,234.03 242.12,234.03 242.50,234.03 242.87,234.03 243.25,231.53 243.62,229.86 244.00,229.86 244.37,229.86 244.74,229.86 245.12,229.86 245.49,229.86 245.87,229.86 246.24,229.86 246.62,229.86 246.99,229.86 247.37,229.86 247.74,229.86 248.12,229.86 248.49,229.86 248.86,227.35 249.24,225.68 249.61,225.68 249.99,225.68 250.36,225.68 250.74,225.68 251.11,225.68 251.49,225.68 251.86,224.85 252.24,223.18 252.61,221.51 252.98,221.51 253.36,221.51 253.73,221.51 254.11,221.51 254.48,221.51 254.86,219.84 255.23,219.01 255.61,217.34 255.98,217.34 256.36,217.34 256.73,217.34 257.10,217.34 257.48,217.34 257.85,217.34 258.23,217.34 258.60,217.34 258.98,217.34 259.35,217.34 259.73,217.34 260.10,217.34 260.48,217.34 260.85,217.34 261.22,217.34 261.60,217.34 261.97,217.34 262.35,217.34 262.72,217.34 263.10,217.34 263.47,217.34 263.85,217.34 264.22,217.34 264.60,217.34 264.97,217.34 265.34,217.34 265.72,217.34 266.09,217.34 266.47,217.34 266.84,217.34 267.22,217.34 267.59,217.34 267.97,217.34 268.34,217.34 268.72,217.34 269.09,217.34 269.46,217.34 269.84,217.34 270.21,217.34 270.59,217.34 270.96,217.34 271.34,217.34 271.71,217.34 272.09,217.34 272.46,217.34 272.84,217.34 273.21,217.34 273.58,217.34 273.96,217.34 274.33,217.34 274.71,217.34 275.08,217.34 275.46,217.34 275.83,217.34 276.21,217.34 276.58,217.34 276.96,217.34 277.33,217.34 277.70,217.34 278.08,217.34 278.45,217.34 278.83,215.67 279.20,214.00 279.58,213.17 279.95,213.17 280.33,213.17 280.70,213.17 281.08,210.67 281.45,209.00 281.82,209.00 282.20,209.00 282.57,209.00 282.95,209.00 283.32,209.00 283.70,208.16 284.07,206.49 284.45,204.83 284.82,204.83 285.20,204.83 285.57,204.83 285.94,204.83 286.32,204.83 286.69,204.83 287.07,204.83 287.44,204.83 287.82,204.83 288.19,204.83 288.57,203.16 288.94,200.65 289.32,200.65 289.69,200.65 290.06,200.65 290.44,200.65 290.81,200.65 291.19,200.65 291.56,198.15 291.94,196.48 292.31,196.48 292.69,196.48 293.06,196.48 293.44,196.48 293.81,195.65 294.18,193.98 294.56,192.31 294.93,192.31 295.31,192.31 295.68,192.31 296.06,192.31 296.43,192.31 296.81,192.31 297.18,192.31 297.55,192.31 297.93,192.31 298.30,192.31 298.68,192.31 299.05,192.31 299.43,192.31 299.80,192.31 300.18,192.31 300.55,192.31 300.93,192.31 301.30,192.31 301.67,192.31 302.05,192.31 302.42,192.31 302.80,192.31 303.17,192.31 303.55,192.31 303.92,192.31 304.30,192.31 304.67,192.31 305.05,192.31 305.42,192.31 305.79,192.31 306.17,192.31 306.54,192.31 306.92,192.31 307.29,192.31 307.67,192.31 308.04,192.31 308.42,192.31 308.79,192.31 309.17,192.31 309.54,192.31 309.91,190.64 310.29,188.14 310.66,188.14 311.04,188.14 311.41,188.14 311.79,185.64 312.16,183.97 312.54,183.97 312.91,183.97 313.29,183.97 313.66,183.97 314.03,183.97 314.41,181.46 314.78,179.80 315.16,179.80 315.53,179.80 315.91,179.80 316.28,179.80 316.66,179.80 317.03,179.80 317.41,179.80 317.78,179.80 318.15,179.80 318.53,176.46 318.90,175.62 319.28,175.62 319.65,175.62 320.03,175.62 320.40,175.62 320.78,173.12 321.15,171.45 321.53,171.45 321.90,171.45 322.27,171.45 322.65,170.62 323.02,168.95 323.40,168.11 323.77,167.28 324.15,167.28 324.52,167.28 324.90,167.28 325.27,167.28 325.65,167.28 326.02,167.28 326.39,167.28 326.77,167.28 327.14,167.28 327.52,167.28 327.89,167.28 328.27,167.28 328.64,167.28 329.02,167.28 329.39,167.28 329.77,167.28 330.14,167.28 330.51,167.28 330.89,167.28 331.26,167.28 331.64,167.28 332.01,167.28 332.39,167.28 332.76,167.28 333.14,167.28 333.51,167.28 333.89,167.28 334.26,167.28 334.63,167.28 335.01,167.28 335.38,167.28 335.76,167.28 336.13,167.28 336.51,167.28 336.88,167.28 337.26,167.28 337.63,167.28 338.01,167.28 338.38,167.28 338.75,167.28 339.13,167.28 339.50,167.28 339.88,167.28 340.25,167.28 340.63,167.28 341.00,165.61 341.38,163.11 341.75,163.11 342.13,163.11 342.50,163.11 342.87,159.77 343.25,158.94 343.62,158.94 344.00,158.94 344.37,158.94 344.75,156.43 345.12,154.76 345.50,154.76 345.87,154.76 346.25,154.76 346.62,154.76 346.99,154.76 347.37,154.76 347.74,152.26 348.12,150.59 348.49,150.59 348.87,150.59 349.24,150.59 349.62,148.09 349.99,146.42 350.37,146.42 350.74,146.42 351.11,144.75 351.49,143.08 351.86,142.25 352.24,142.25 352.61,142.25 352.99,142.25 353.36,142.25 353.74,142.25 354.11,142.25 354.49,142.25 354.86,142.25 355.23,142.25 355.61,142.25 355.98,142.25 356.36,142.25 356.73,142.25 357.11,142.25 357.48,142.25 357.86,142.25 358.23,142.25 358.61,142.25 358.98,142.25 359.35,142.25 359.73,142.25 360.10,142.25 360.48,142.25 360.85,142.25 361.23,139.75 361.60,138.08 361.98,138.08 362.35,137.24 362.73,133.91 363.10,133.91 363.47,133.91 363.85,133.91 364.22,132.24 364.60,129.73 364.97,129.73 365.35,129.73 365.72,129.73 366.10,129.73 366.47,129.73 366.85,126.40 367.22,125.56 367.59,125.56 367.97,125.56 368.34,123.89 368.72,121.39 369.09,121.39 369.47,121.39 369.84,118.89 370.22,117.22 370.59,117.22 370.96,117.22 371.34,117.22 371.71,117.22 372.09,117.22 372.46,117.22 372.84,117.22 373.21,117.22 373.59,117.22 373.96,117.22 374.34,117.22 374.71,117.22 375.08,117.22 375.46,117.22 375.83,117.22 376.21,117.22 376.58,117.22 376.96,117.22 377.33,117.22 377.71,117.22 378.08,117.22 378.46,117.22 378.83,117.22 379.20,117.22 379.58,117.22 379.95,117.22 380.33,117.22 380.70,113.88 381.08,113.05 381.45,112.21 381.83,108.88 382.20,108.88 382.58,108.88 382.95,105.54 383.32,104.70 383.70,104.70 384.07,104.70 384.45,104.70 384.82,101.37 385.20,100.53 385.57,100.53 385.95,97.19 386.32,96.36 386.70,96.36 387.07,92.19 387.44,92.19 387.82,92.19 388.19,92.19 388.57,92.19 388.94,92.19 389.32,92.19 389.69,92.19 390.07,92.19 390.44,92.19 390.82,92.19 391.19,92.19 391.56,92.19 391.94,92.19 392.31,88.02 392.69,88.02 393.06,83.84 393.44,83.84 393.81,83.84 394.19,79.67 394.56,79.67 394.94,79.67 395.31,77.17 395.68,75.50 396.06,75.50 396.43,71.33 396.81,71.33 397.18,67.99 397.56,67.16 397.93,67.16 398.31,67.16 398.68,67.16 399.06,67.16 399.43,67.16 399.80,67.16 400.18,67.16 400.55,67.16 400.93,67.16 401.30,67.16 401.68,67.16 402.05,67.16 402.43,67.16 402.80,67.16 403.18,62.99 403.55,61.32 403.92,58.81 404.30,56.31 404.67,54.64 405.05,54.64 405.42,50.47 405.80,50.47 406.17,46.30 406.55,46.30 406.92,42.13 407.30,42.13 407.67,42.13 408.04,42.13 408.42,42.13 408.79,42.13 409.17,42.13 "
     style="fill:none;stroke:#990000;stroke-width:1.5;stroke-linecap:butt;stroke-linejoin:round;stroke-miterlimit:10;stroke-dasharray:none"
     clip-path="url(#cpNTUuMjI3Mnw0MjYuMDIyfDQzNi4zNTl8MjMuMzUzOA==)"
     id="polyline35"
     transform="translate(13.309514,161.09204)" />
  <polyline
     points="72.08,417.59 72.46,417.59 72.83,417.59 73.21,417.59 73.58,417.59 73.95,417.59 74.33,417.59 74.70,417.59 75.08,417.59 75.45,417.59 75.83,417.59 76.20,417.59 76.58,417.59 76.95,417.59 77.33,417.59 77.70,417.59 78.07,417.59 78.45,417.59 78.82,417.59 79.20,417.59 79.57,417.59 79.95,417.59 80.32,417.59 80.70,417.59 81.07,417.59 81.45,417.59 81.82,417.59 82.19,417.59 82.57,417.59 82.94,417.59 83.32,417.59 83.69,417.59 84.07,417.59 84.44,417.59 84.82,417.59 85.19,417.59 85.57,417.59 85.94,417.59 86.31,417.59 86.69,417.59 87.06,417.59 87.44,417.59 87.81,417.59 88.19,417.59 88.56,417.59 88.94,417.59 89.31,417.59 89.68,417.59 90.06,417.59 90.43,417.59 90.81,417.59 91.18,417.59 91.56,417.59 91.93,417.59 92.31,417.59 92.68,417.59 93.06,417.59 93.43,367.53 93.80,367.53 94.18,367.53 94.55,367.53 94.93,367.53 95.30,367.53 95.68,367.53 96.05,367.53 96.43,367.53 96.80,367.53 97.18,367.53 97.55,367.53 97.92,367.53 98.30,367.53 98.67,367.53 99.05,367.53 99.42,367.53 99.80,367.53 100.17,367.53 100.55,367.53 100.92,367.53 101.30,367.53 101.67,367.53 102.04,367.53 102.42,367.53 102.79,367.53 103.17,367.53 103.54,367.53 103.92,367.53 104.29,367.53 104.67,367.53 105.04,367.53 105.42,367.53 105.79,367.53 106.16,367.53 106.54,367.53 106.91,367.53 107.29,367.53 107.66,367.53 108.04,367.53 108.41,367.53 108.79,367.53 109.16,367.53 109.54,367.53 109.91,367.53 110.28,367.53 110.66,367.53 111.03,367.53 111.41,367.53 111.78,367.53 112.16,367.53 112.53,367.53 112.91,367.53 113.28,367.53 113.66,367.53 114.03,367.53 114.40,367.53 114.78,367.53 115.15,367.53 115.53,367.53 115.90,367.53 116.28,367.53 116.65,367.53 117.03,367.53 117.40,367.53 117.78,367.53 118.15,367.53 118.52,367.53 118.90,367.53 119.27,367.53 119.65,367.53 120.02,367.53 120.40,367.53 120.77,367.53 121.15,367.53 121.52,367.53 121.90,367.53 122.27,367.53 122.64,367.53 123.02,367.53 123.39,367.53 123.77,367.53 124.14,367.53 124.52,367.53 124.89,367.53 125.27,367.53 125.64,367.53 126.02,367.53 126.39,367.53 126.76,367.53 127.14,367.53 127.51,367.53 127.89,367.53 128.26,367.53 128.64,367.53 129.01,367.53 129.39,367.53 129.76,367.53 130.14,367.53 130.51,367.53 130.88,367.53 131.26,367.53 131.63,367.53 132.01,367.53 132.38,367.53 132.76,367.53 133.13,367.53 133.51,367.53 133.88,367.53 134.26,367.53 134.63,367.53 135.00,367.53 135.38,367.53 135.75,367.53 136.13,367.53 136.50,367.53 136.88,367.53 137.25,367.53 137.63,367.53 138.00,367.53 138.38,367.53 138.75,367.53 139.12,367.53 139.50,367.53 139.87,367.53 140.25,367.53 140.62,367.53 141.00,367.53 141.37,367.53 141.75,367.53 142.12,367.53 142.50,367.53 142.87,367.53 143.24,367.53 143.62,367.53 143.99,367.53 144.37,367.53 144.74,367.53 145.12,367.53 145.49,367.53 145.87,367.53 146.24,367.53 146.62,367.53 146.99,367.53 147.36,367.53 147.74,367.53 148.11,367.53 148.49,367.53 148.86,367.53 149.24,367.53 149.61,367.53 149.99,367.53 150.36,367.53 150.74,367.53 151.11,367.53 151.48,367.53 151.86,367.53 152.23,367.53 152.61,367.53 152.98,367.53 153.36,367.53 153.73,367.53 154.11,367.53 154.48,367.53 154.86,367.53 155.23,367.53 155.60,367.53 155.98,367.53 156.35,367.53 156.73,367.53 157.10,367.53 157.48,367.53 157.85,367.53 158.23,367.53 158.60,367.53 158.97,367.53 159.35,367.53 159.72,367.53 160.10,367.53 160.47,367.53 160.85,367.53 161.22,367.53 161.60,367.53 161.97,367.53 162.35,367.53 162.72,367.53 163.09,367.53 163.47,367.53 163.84,367.53 164.22,367.53 164.59,367.53 164.97,367.53 165.34,367.53 165.72,367.53 166.09,367.53 166.47,367.53 166.84,367.53 167.21,367.53 167.59,367.53 167.96,367.53 168.34,367.53 168.71,367.53 169.09,367.53 169.46,367.53 169.84,367.53 170.21,367.53 170.59,367.53 170.96,367.53 171.33,367.53 171.71,367.53 172.08,367.53 172.46,367.53 172.83,367.53 173.21,317.46 173.58,317.46 173.96,317.46 174.33,317.46 174.71,317.46 175.08,317.46 175.45,317.46 175.83,317.46 176.20,317.46 176.58,317.46 176.95,317.46 177.33,317.46 177.70,317.46 178.08,317.46 178.45,317.46 178.83,317.46 179.20,317.46 179.57,317.46 179.95,317.46 180.32,317.46 180.70,317.46 181.07,317.46 181.45,317.46 181.82,317.46 182.20,317.46 182.57,317.46 182.95,317.46 183.32,317.46 183.69,317.46 184.07,317.46 184.44,317.46 184.82,317.46 185.19,317.46 185.57,317.46 185.94,317.46 186.32,317.46 186.69,317.46 187.07,317.46 187.44,317.46 187.81,317.46 188.19,317.46 188.56,317.46 188.94,317.46 189.31,317.46 189.69,317.46 190.06,317.46 190.44,317.46 190.81,317.46 191.19,317.46 191.56,317.46 191.93,317.46 192.31,317.46 192.68,317.46 193.06,317.46 193.43,317.46 193.81,317.46 194.18,317.46 194.56,317.46 194.93,317.46 195.31,317.46 195.68,317.46 196.05,317.46 196.43,317.46 196.80,317.46 197.18,317.46 197.55,317.46 197.93,317.46 198.30,317.46 198.68,317.46 199.05,317.46 199.43,317.46 199.80,317.46 200.17,317.46 200.55,317.46 200.92,317.46 201.30,317.46 201.67,317.46 202.05,317.46 202.42,317.46 202.80,317.46 203.17,317.46 203.55,317.46 203.92,317.46 204.29,317.46 204.67,317.46 205.04,317.46 205.42,317.46 205.79,317.46 206.17,317.46 206.54,317.46 206.92,317.46 207.29,317.46 207.67,317.46 208.04,317.46 208.41,317.46 208.79,317.46 209.16,317.46 209.54,317.46 209.91,317.46 210.29,317.46 210.66,317.46 211.04,317.46 211.41,317.46 211.79,317.46 212.16,317.46 212.53,317.46 212.91,317.46 213.28,317.46 213.66,317.46 214.03,317.46 214.41,317.46 214.78,317.46 215.16,317.46 215.53,317.46 215.91,317.46 216.28,317.46 216.65,317.46 217.03,317.46 217.40,317.46 217.78,317.46 218.15,317.46 218.53,317.46 218.90,317.46 219.28,317.46 219.65,317.46 220.03,317.46 220.40,317.46 220.77,317.46 221.15,317.46 221.52,317.46 221.90,317.46 222.27,317.46 222.65,317.46 223.02,317.46 223.40,317.46 223.77,317.46 224.15,317.46 224.52,317.46 224.89,317.46 225.27,317.46 225.64,317.46 226.02,317.46 226.39,317.46 226.77,317.46 227.14,317.46 227.52,317.46 227.89,317.46 228.26,317.46 228.64,317.46 229.01,317.46 229.39,317.46 229.76,317.46 230.14,317.46 230.51,317.46 230.89,317.46 231.26,317.46 231.64,317.46 232.01,317.46 232.38,317.46 232.76,317.46 233.13,317.46 233.51,317.46 233.88,317.46 234.26,317.46 234.63,317.46 235.01,317.46 235.38,317.46 235.76,317.46 236.13,317.46 236.50,317.46 236.88,317.46 237.25,317.46 237.63,317.46 238.00,317.46 238.38,317.46 238.75,317.46 239.13,317.46 239.50,317.46 239.88,317.46 240.25,317.46 240.62,317.46 241.00,317.46 241.37,317.46 241.75,317.46 242.12,317.46 242.50,317.46 242.87,317.46 243.25,317.46 243.62,317.46 244.00,317.46 244.37,317.46 244.74,317.46 245.12,317.46 245.49,317.46 245.87,317.46 246.24,317.46 246.62,317.46 246.99,317.46 247.37,317.46 247.74,317.46 248.12,317.46 248.49,317.46 248.86,317.46 249.24,317.46 249.61,317.46 249.99,317.46 250.36,317.46 250.74,317.46 251.11,317.46 251.49,317.46 251.86,317.46 252.24,317.46 252.61,317.46 252.98,317.46 253.36,317.46 253.73,317.46 254.11,317.46 254.48,317.46 254.86,317.46 255.23,317.46 255.61,317.46 255.98,317.46 256.36,317.46 256.73,317.46 257.10,317.46 257.48,317.46 257.85,317.46 258.23,317.46 258.60,317.46 258.98,317.46 259.35,317.46 259.73,317.46 260.10,317.46 260.48,317.46 260.85,317.46 261.22,317.46 261.60,317.46 261.97,317.46 262.35,317.46 262.72,317.46 263.10,317.46 263.47,317.46 263.85,317.46 264.22,317.46 264.60,317.46 264.97,317.46 265.34,317.46 265.72,317.46 266.09,317.46 266.47,317.46 266.84,317.46 267.22,317.46 267.59,317.46 267.97,317.46 268.34,317.46 268.72,317.46 269.09,317.46 269.46,317.46 269.84,317.46 270.21,317.46 270.59,317.46 270.96,317.46 271.34,317.46 271.71,317.46 272.09,317.46 272.46,317.46 272.84,317.46 273.21,317.46 273.58,317.46 273.96,317.46 274.33,317.46 274.71,317.46 275.08,317.46 275.46,317.46 275.83,317.46 276.21,317.46 276.58,317.46 276.96,317.46 277.33,317.46 277.70,317.46 278.08,317.46 278.45,317.46 278.83,317.46 279.20,317.46 279.58,317.46 279.95,317.46 280.33,317.46 280.70,317.46 281.08,317.46 281.45,317.46 281.82,317.46 282.20,317.46 282.57,317.46 282.95,317.46 283.32,317.46 283.70,317.46 284.07,317.46 284.45,317.46 284.82,317.46 285.20,317.46 285.57,267.40 285.94,267.40 286.32,267.40 286.69,267.40 287.07,267.40 287.44,267.40 287.82,267.40 288.19,267.40 288.57,267.40 288.94,267.40 289.32,267.40 289.69,267.40 290.06,267.40 290.44,267.40 290.81,267.40 291.19,267.40 291.56,267.40 291.94,267.40 292.31,267.40 292.69,267.40 293.06,267.40 293.44,267.40 293.81,267.40 294.18,267.40 294.56,267.40 294.93,267.40 295.31,267.40 295.68,267.40 296.06,267.40 296.43,267.40 296.81,267.40 297.18,267.40 297.55,267.40 297.93,267.40 298.30,267.40 298.68,267.40 299.05,267.40 299.43,267.40 299.80,267.40 300.18,267.40 300.55,267.40 300.93,267.40 301.30,267.40 301.67,267.40 302.05,267.40 302.42,267.40 302.80,267.40 303.17,267.40 303.55,267.40 303.92,267.40 304.30,267.40 304.67,267.40 305.05,267.40 305.42,267.40 305.79,267.40 306.17,267.40 306.54,267.40 306.92,267.40 307.29,267.40 307.67,267.40 308.04,267.40 308.42,267.40 308.79,267.40 309.17,267.40 309.54,267.40 309.91,267.40 310.29,267.40 310.66,267.40 311.04,267.40 311.41,267.40 311.79,267.40 312.16,267.40 312.54,267.40 312.91,267.40 313.29,267.40 313.66,267.40 314.03,267.40 314.41,267.40 314.78,267.40 315.16,267.40 315.53,267.40 315.91,267.40 316.28,267.40 316.66,267.40 317.03,267.40 317.41,267.40 317.78,267.40 318.15,267.40 318.53,267.40 318.90,267.40 319.28,267.40 319.65,267.40 320.03,267.40 320.40,267.40 320.78,267.40 321.15,267.40 321.53,267.40 321.90,267.40 322.27,267.40 322.65,267.40 323.02,267.40 323.40,267.40 323.77,267.40 324.15,267.40 324.52,267.40 324.90,267.40 325.27,267.40 325.65,267.40 326.02,267.40 326.39,267.40 326.77,267.40 327.14,267.40 327.52,267.40 327.89,267.40 328.27,267.40 328.64,267.40 329.02,267.40 329.39,267.40 329.77,267.40 330.14,267.40 330.51,267.40 330.89,267.40 331.26,267.40 331.64,267.40 332.01,267.40 332.39,267.40 332.76,267.40 333.14,267.40 333.51,267.40 333.89,267.40 334.26,267.40 334.63,267.40 335.01,267.40 335.38,267.40 335.76,267.40 336.13,267.40 336.51,267.40 336.88,267.40 337.26,267.40 337.63,267.40 338.01,267.40 338.38,267.40 338.75,267.40 339.13,267.40 339.50,267.40 339.88,267.40 340.25,267.40 340.63,267.40 341.00,267.40 341.38,267.40 341.75,267.40 342.13,267.40 342.50,267.40 342.87,267.40 343.25,267.40 343.62,267.40 344.00,267.40 344.37,267.40 344.75,267.40 345.12,267.40 345.50,267.40 345.87,267.40 346.25,267.40 346.62,267.40 346.99,267.40 347.37,267.40 347.74,267.40 348.12,267.40 348.49,267.40 348.87,267.40 349.24,267.40 349.62,267.40 349.99,267.40 350.37,267.40 350.74,267.40 351.11,267.40 351.49,267.40 351.86,267.40 352.24,267.40 352.61,267.40 352.99,267.40 353.36,267.40 353.74,267.40 354.11,267.40 354.49,267.40 354.86,267.40 355.23,267.40 355.61,267.40 355.98,267.40 356.36,267.40 356.73,267.40 357.11,267.40 357.48,267.40 357.86,267.40 358.23,267.40 358.61,267.40 358.98,267.40 359.35,267.40 359.73,267.40 360.10,267.40 360.48,267.40 360.85,267.40 361.23,267.40 361.60,267.40 361.98,267.40 362.35,267.40 362.73,267.40 363.10,267.40 363.47,267.40 363.85,267.40 364.22,267.40 364.60,267.40 364.97,267.40 365.35,267.40 365.72,267.40 366.10,267.40 366.47,267.40 366.85,267.40 367.22,267.40 367.59,267.40 367.97,267.40 368.34,267.40 368.72,267.40 369.09,267.40 369.47,267.40 369.84,267.40 370.22,267.40 370.59,267.40 370.96,267.40 371.34,267.40 371.71,267.40 372.09,267.40 372.46,267.40 372.84,267.40 373.21,267.40 373.59,267.40 373.96,267.40 374.34,267.40 374.71,267.40 375.08,267.40 375.46,267.40 375.83,267.40 376.21,267.40 376.58,267.40 376.96,267.40 377.33,267.40 377.71,267.40 378.08,267.40 378.46,267.40 378.83,267.40 379.20,267.40 379.58,267.40 379.95,267.40 380.33,267.40 380.70,267.40 381.08,267.40 381.45,267.40 381.83,267.40 382.20,267.40 382.58,267.40 382.95,267.40 383.32,267.40 383.70,267.40 384.07,267.40 384.45,267.40 384.82,267.40 385.20,267.40 385.57,267.40 385.95,267.40 386.32,267.40 386.70,267.40 387.07,267.40 387.44,267.40 387.82,267.40 388.19,267.40 388.57,267.40 388.94,267.40 389.32,267.40 389.69,267.40 390.07,267.40 390.44,267.40 390.82,267.40 391.19,267.40 391.56,267.40 391.94,267.40 392.31,267.40 392.69,267.40 393.06,267.40 393.44,267.40 393.81,267.40 394.19,267.40 394.56,267.40 394.94,267.40 395.31,267.40 395.68,267.40 396.06,267.40 396.43,267.40 396.81,217.34 397.18,217.34 397.56,217.34 397.93,217.34 398.31,217.34 398.68,217.34 399.06,217.34 399.43,217.34 399.80,217.34 400.18,217.34 400.55,217.34 400.93,217.34 401.30,217.34 401.68,217.34 402.05,217.34 402.43,217.34 402.80,217.34 403.18,217.34 403.55,217.34 403.92,217.34 404.30,217.34 404.67,217.34 405.05,217.34 405.42,217.34 405.80,217.34 406.17,217.34 406.55,217.34 406.92,217.34 407.30,217.34 407.67,217.34 408.04,217.34 408.42,217.34 408.79,217.34 409.17,217.34 "
     style="fill:none;stroke:#075290;stroke-width:1.5;stroke-linecap:butt;stroke-linejoin:round;stroke-miterlimit:10;stroke-dasharray:none"
     clip-path="url(#cpNTUuMjI3Mnw0MjYuMDIyfDQzNi4zNTl8MjMuMzUzOA==)"
     id="polyline37"
     transform="translate(13.309514,161.09204)" />
  <defs
     id="defs42">
    <clipPath
       id="cpMHw0MzJ8NTA0fDA=">
      <rect
         x="0"
         y="0"
         width="432"
         height="504"
         id="rect39"
         style="fill:none;stroke:#000000;stroke-linecap:round;stroke-linejoin:round;stroke-miterlimit:10" />
    </clipPath>
  </defs>
  <g
     clip-path="url(#cpMHw0MzJ8NTA0fDA=)"
     id="g46"
     transform="translate(13.309514,161.09204)">
    <text
       x="26.24"
       y="371.10999"
       style="font-size:9.60000038px;font-family:Lato;fill:#4d4d4d"
       textLength="25.5"
       lengthAdjust="spacingAndGlyphs"
       id="text44">6h:00</text>
  </g>
  <g
     clip-path="url(#cpMHw0MzJ8NTA0fDA=)"
     id="g50"
     transform="translate(13.309514,161.09204)">
    <text
       x="26.24"
       y="270.98999"
       style="font-size:9.60000038px;font-family:Lato;fill:#4d4d4d"
       textLength="25.5"
       lengthAdjust="spacingAndGlyphs"
       id="text48">8h:00</text>
  </g>
  <g
     clip-path="url(#cpMHw0MzJ8NTA0fDA=)"
     id="g54"
     transform="translate(13.309514,161.09204)">
    <text
       x="20.440001"
       y="170.87"
       style="font-size:9.60000038px;font-family:Lato;fill:#4d4d4d"
       textLength="31.299999"
       lengthAdjust="spacingAndGlyphs"
       id="text52">10h:00</text>
  </g>
  <g
     clip-path="url(#cpMHw0MzJ8NTA0fDA=)"
     id="g58"
     transform="translate(13.309514,161.09204)">
    <text
       x="20.440001"
       y="70.739998"
       style="font-size:9.60000038px;font-family:Lato;fill:#4d4d4d"
       textLength="31.299999"
       lengthAdjust="spacingAndGlyphs"
       id="text56">12h:00</text>
  </g>
  <g
     clip-path="url(#cpMHw0MzJ8NTA0fDA=)"
     id="g62"
     transform="translate(13.309514,161.09204)">
    <text
       x="141.19"
       y="447.01999"
       style="font-size:9.60000038px;font-family:Lato;fill:#4d4d4d"
       textLength="11.6"
       lengthAdjust="spacingAndGlyphs"
       id="text60">25</text>
  </g>
  <g
     clip-path="url(#cpMHw0MzJ8NTA0fDA=)"
     id="g66"
     transform="translate(13.309514,161.09204)">
    <text
       x="234.82001"
       y="447.01999"
       style="font-size:9.60000038px;font-family:Lato;fill:#4d4d4d"
       textLength="11.6"
       lengthAdjust="spacingAndGlyphs"
       id="text64">50</text>
  </g>
  <g
     clip-path="url(#cpMHw0MzJ8NTA0fDA=)"
     id="g74"
     transform="translate(13.309514,161.09204)">
    <text
       x="374.89001"
       y="473.94"
       style="font-style:italic;font-size:10px;font-family:'Lato Light';fill:#333333"
       textLength="51.139999"
       lengthAdjust="spacingAndGlyphs"
       id="text72">@hnrklndbrg</text>
  </g>
  <g
     clip-path="url(#cpMHw0MzJ8NTA0fDA=)"
     id="g78"
     transform="translate(13.309514,161.09204)">
    <text
       x="286"
       y="484.73999"
       style="font-style:italic;font-size:10px;font-family:'Lato Light';fill:#333333"
       textLength="140.02"
       lengthAdjust="spacingAndGlyphs"
       id="text76">Sources: https://www.bls.gov/tus/</text>
  </g>
  <g
     clip-path="url(#cpMHw0MzJ8NTA0fDA=)"
     id="g82"
     transform="translate(13.309514,161.09204)">
    <text
       x="182.61"
       y="495.54001"
       style="font-style:italic;font-size:10px;font-family:'Lato Light';fill:#333333"
       textLength="243.41"
       lengthAdjust="spacingAndGlyphs"
       id="text80">https://www.cdc.gov/brfss/annual_data/annual_2016.html</text>
  </g>
  <text
     xml:space="preserve"
     style="font-style:normal;font-weight:normal;font-size:9.60000038px;line-height:1.25;font-family:sans-serif;letter-spacing:0px;word-spacing:0px;fill:#000000;fill-opacity:1;stroke:none"
     x="341.79102"
     y="607.42322"
     id="text4567"><tspan
       sodipodi:role="line"
       id="tspan4565"
       x="341.79102"
       y="607.42322"
       style="font-style:normal;font-variant:normal;font-weight:normal;font-stretch:normal;font-family:Lato;-inkscape-font-specification:Lato;fill:#4d4d4d;fill-opacity:1">75</tspan></text>
  <text
     id="text4597"
     y="607.42322"
     x="413.79102"
     style="font-style:normal;font-weight:normal;font-size:9.60000038px;line-height:1.25;font-family:sans-serif;letter-spacing:0px;word-spacing:0px;fill:#000000;fill-opacity:1;stroke:none"
     xml:space="preserve"><tspan
       style="font-style:normal;font-variant:normal;font-weight:normal;font-stretch:normal;font-family:Lato;-inkscape-font-specification:Lato;fill:#4d4d4d;fill-opacity:1"
       y="607.42322"
       x="413.79102"
       id="tspan4595"
       sodipodi:role="line">95</tspan><tspan
       style="font-style:normal;font-variant:normal;font-weight:normal;font-stretch:normal;font-family:Lato;-inkscape-font-specification:Lato;fill:#4d4d4d;fill-opacity:1"
       y="619.42322"
       x="413.79102"
       sodipodi:role="line"
       id="tspan4599" /></text>
  <text
     xml:space="preserve"
     style="font-style:normal;font-weight:normal;font-size:9.60000038px;line-height:1.25;font-family:sans-serif;letter-spacing:0px;word-spacing:0px;fill:#000000;fill-opacity:1;stroke:none"
     x="79.791023"
     y="607.42322"
     id="text4605"><tspan
       id="tspan4603"
       sodipodi:role="line"
       x="79.791023"
       y="607.42322"
       style="font-style:normal;font-variant:normal;font-weight:normal;font-stretch:normal;font-family:Lato;-inkscape-font-specification:Lato;fill:#4d4d4d;fill-opacity:1">5th percentile</tspan></text>
  <path
     style="fill:none;stroke:#000000;stroke-width:0.8;stroke-linecap:butt;stroke-linejoin:miter;stroke-miterlimit:10;stroke-dasharray:2.4,2.4;stroke-dashoffset:0;stroke-opacity:1"
     d="m 231.14003,515.06662 v -21.88983 h -43.77966 l -66.69935,0"
     id="path4663"
     inkscape:connector-curvature="0" />
  <rect
     style="fill:#ffffff;fill-opacity:1;stroke:#000000;stroke-width:0.40000001;stroke-linecap:round;stroke-linejoin:round;stroke-miterlimit:10;stroke-dasharray:none;stroke-dashoffset:0;stroke-opacity:1"
     id="rect4650"
     width="236.52577"
     height="64.076614"
     x="198.57629"
     y="509.85876" />
  <text
     id="text4597-6"
     y="526.51428"
     x="211.63277"
     style="font-style:normal;font-weight:normal;font-size:9.60000038px;line-height:1.25;font-family:sans-serif;letter-spacing:0px;word-spacing:0px;fill:#000000;fill-opacity:1;stroke:none"
     xml:space="preserve"><tspan
       style="font-style:normal;font-variant:normal;font-weight:normal;font-stretch:normal;font-family:Lato;-inkscape-font-specification:Lato;fill:#4d4d4d;fill-opacity:1"
       y="526.51428"
       x="211.63277"
       sodipodi:role="line"
       id="tspan4632">Based on the BRFSS, the CDC regularly warns that</tspan><tspan
       style="font-style:normal;font-variant:normal;font-weight:normal;font-stretch:normal;font-family:Lato;-inkscape-font-specification:Lato;fill:#4d4d4d;fill-opacity:1"
       y="538.94855"
       x="211.63277"
       sodipodi:role="line"
       id="tspan4636">a third of Americans don't sleep the recommended</tspan><tspan
       style="font-style:normal;font-variant:normal;font-weight:normal;font-stretch:normal;font-family:Lato;-inkscape-font-specification:Lato;fill:#4d4d4d;fill-opacity:1"
       y="551.38281"
       x="211.63277"
       sodipodi:role="line"
       id="tspan4646">seven hours a day. According to ATUS, the number</tspan><tspan
       style="font-style:normal;font-variant:normal;font-weight:normal;font-stretch:normal;font-family:Lato;-inkscape-font-specification:Lato;fill:#4d4d4d;fill-opacity:1"
       y="563.81702"
       x="211.63277"
       sodipodi:role="line"
       id="tspan4648">is closer to a sixth.</tspan><tspan
       style="font-style:normal;font-variant:normal;font-weight:normal;font-stretch:normal;font-family:Lato;-inkscape-font-specification:Lato;fill:#4d4d4d;fill-opacity:1"
       y="575.81702"
       x="211.63277"
       sodipodi:role="line"
       id="tspan4599-4" /></text>
  <path
     style="fill:none;stroke:#000000;stroke-width:0.80000001;stroke-linecap:butt;stroke-linejoin:miter;stroke-miterlimit:10;stroke-dasharray:3.20000005, 1.60000002;stroke-dashoffset:0;stroke-opacity:1"
     d="m 253.55952,395.95204 h -41.10593 v -46.9278"
     id="path4848"
     inkscape:connector-curvature="0" />
  <rect
     style="fill:#ffffff;fill-opacity:1;stroke:#000000;stroke-width:0.40000001;stroke-linecap:round;stroke-linejoin:round;stroke-miterlimit:10;stroke-dasharray:none;stroke-dashoffset:0;stroke-opacity:1"
     id="rect4650-9"
     width="181.50745"
     height="88.075241"
     x="100.61087"
     y="271.06714" />
  <text
     id="text4597-6-5"
     y="286.73111"
     x="110.36685"
     style="font-style:normal;font-weight:normal;font-size:9.60000038px;line-height:1.25;font-family:sans-serif;letter-spacing:0px;word-spacing:0px;fill:#000000;fill-opacity:1;stroke:none"
     xml:space="preserve"><tspan
       style="font-style:normal;font-variant:normal;font-weight:normal;font-stretch:normal;font-family:Lato;-inkscape-font-specification:Lato;fill:#4d4d4d;fill-opacity:1"
       y="286.73111"
       x="110.36685"
       sodipodi:role="line"
       id="tspan4648-7">The median daily sleep for those who</tspan><tspan
       style="font-style:normal;font-variant:normal;font-weight:normal;font-stretch:normal;font-family:Lato;-inkscape-font-specification:Lato;fill:#4d4d4d;fill-opacity:1"
       y="299.16537"
       x="110.36685"
       sodipodi:role="line"
       id="tspan4714">fill out diaries is 8h:40; about 8h:00</tspan><tspan
       style="font-style:normal;font-variant:normal;font-weight:normal;font-stretch:normal;font-family:Lato;-inkscape-font-specification:Lato;fill:#4d4d4d;fill-opacity:1"
       y="311.59961"
       x="110.36685"
       sodipodi:role="line"
       id="tspan4716">on weekdays and 9h:00 on weekends.</tspan><tspan
       style="font-style:normal;font-variant:normal;font-weight:normal;font-stretch:normal;font-family:Lato;-inkscape-font-specification:Lato;fill:#4d4d4d;fill-opacity:1"
       y="324.03387"
       x="110.36685"
       sodipodi:role="line"
       id="tspan4728">When instead asked about how much</tspan><tspan
       style="font-style:normal;font-variant:normal;font-weight:normal;font-stretch:normal;font-family:Lato;-inkscape-font-specification:Lato;fill:#4d4d4d;fill-opacity:1"
       y="336.46811"
       x="110.36685"
       sodipodi:role="line"
       id="tspan4718">they sleep on average, the median</tspan><tspan
       style="font-style:normal;font-variant:normal;font-weight:normal;font-stretch:normal;font-family:Lato;-inkscape-font-specification:Lato;fill:#4d4d4d;fill-opacity:1"
       y="348.90237"
       x="110.36685"
       sodipodi:role="line"
       id="tspan4734">person reports 7h:00.</tspan><tspan
       style="font-style:normal;font-variant:normal;font-weight:normal;font-stretch:normal;font-family:Lato;-inkscape-font-specification:Lato;fill:#4d4d4d;fill-opacity:1"
       y="360.90237"
       x="110.36685"
       sodipodi:role="line"
       id="tspan4599-4-1" /></text>
  <circle
     style="fill:#111111;fill-opacity:1;stroke:none;stroke-width:1;stroke-linecap:round;stroke-linejoin:round;stroke-miterlimit:10;stroke-dasharray:3, 3;stroke-dashoffset:0;stroke-opacity:1"
     id="path4738"
     cx="253.9295"
     cy="395.12201"
     r="3.9054241" />
  <circle
     style="fill:#111111;fill-opacity:1;stroke:none;stroke-width:1;stroke-linecap:round;stroke-linejoin:round;stroke-miterlimit:10;stroke-dasharray:3, 3;stroke-dashoffset:0;stroke-opacity:1"
     id="path4738-7"
     cx="186.42392"
     cy="492.90985"
     r="3.9054241" />
  <text
     xml:space="preserve"
     style="font-style:normal;font-weight:normal;font-size:9.60000038px;line-height:1.25;font-family:sans-serif;letter-spacing:0px;word-spacing:0px;fill:#000000;fill-opacity:1;stroke:none"
     x="34.45536"
     y="76.892609"
     id="text4810"><tspan
       sodipodi:role="line"
       id="tspan4808"
       x="34.45536"
       y="76.892609"
       style="font-style:normal;font-variant:normal;font-weight:normal;font-stretch:normal;font-size:12px;font-family:'Playfair Display';-inkscape-font-specification:'Playfair Display'">The Behavioral Risk Factor Surveillance System survey from Centers for</tspan><tspan
       sodipodi:role="line"
       x="34.45536"
       y="91.892609"
       id="tspan4812"
       style="font-style:normal;font-variant:normal;font-weight:normal;font-stretch:normal;font-size:12px;font-family:'Playfair Display';-inkscape-font-specification:'Playfair Display'">Disease Control and Prevention and the American Time Use Survey from</tspan><tspan
       sodipodi:role="line"
       x="34.45536"
       y="106.89261"
       id="tspan4814"
       style="font-style:normal;font-variant:normal;font-weight:normal;font-stretch:normal;font-size:12px;font-family:'Playfair Display';-inkscape-font-specification:'Playfair Display'">Bureau of Labor Statistics ask adult Americans how much they sleep.</tspan><tspan
       sodipodi:role="line"
       x="34.45536"
       y="119.1457"
       style="font-style:normal;font-variant:normal;font-weight:normal;font-stretch:normal;font-size:12px;font-family:'Playfair Display';-inkscape-font-specification:'Playfair Display'"
       id="tspan4826" /><tspan
       sodipodi:role="line"
       x="34.45536"
       y="133.89261"
       style="font-style:normal;font-variant:normal;font-weight:normal;font-stretch:normal;font-size:12px;font-family:'Playfair Display';-inkscape-font-specification:'Playfair Display'"
       id="tspan4832">The BRFSS asks <tspan
   style="font-style:italic"
   id="tspan4838">&quot;On average, how many hours of sleep do you get in a</tspan></tspan><tspan
       sodipodi:role="line"
       x="34.45536"
       y="148.89261"
       id="tspan4816"
       style="font-style:normal;font-variant:normal;font-weight:normal;font-stretch:normal;font-size:12px;font-family:'Playfair Display';-inkscape-font-specification:'Playfair Display'"><tspan
   style="font-style:italic"
   id="tspan4840">24-hour period?&quot;</tspan> while ATUS has respondents fill out detailed diaries. The</tspan><tspan
       sodipodi:role="line"
       x="34.45536"
       y="163.89261"
       style="font-style:normal;font-variant:normal;font-weight:normal;font-stretch:normal;font-size:12px;font-family:'Playfair Display';-inkscape-font-specification:'Playfair Display'"
       id="tspan4842">two methods give very different results.</tspan></text>
  <text
     xml:space="preserve"
     style="font-style:normal;font-weight:normal;font-size:9.60000038px;line-height:1.25;font-family:sans-serif;letter-spacing:0px;word-spacing:0px;fill:#000000;fill-opacity:1;stroke:none"
     x="33.317993"
     y="54.31237"
     id="text4846"><tspan
       sodipodi:role="line"
       id="tspan4844"
       x="33.317993"
       y="54.31237"
       style="font-style:normal;font-variant:normal;font-weight:normal;font-stretch:normal;font-size:21.33333397px;font-family:'Playfair Display';-inkscape-font-specification:'Playfair Display'">Be careful what you ask for</tspan></text>
  <circle
     r="3.9054241"
     cy="478.18982"
     cx="253.9295"
     id="circle4850"
     style="fill:#111111;fill-opacity:1;stroke:none;stroke-width:1;stroke-linecap:round;stroke-linejoin:round;stroke-miterlimit:10;stroke-dasharray:3, 3;stroke-dashoffset:0;stroke-opacity:1" />
  <path
     style="fill:none;stroke:#000000;stroke-width:0.80000001;stroke-linecap:butt;stroke-linejoin:miter;stroke-miterlimit:10;stroke-dasharray:2.4, 2.4;stroke-dashoffset:0;stroke-opacity:1"
     d="M 253.92952,479.82933 V 397.60899"
     id="path4856"
     inkscape:connector-curvature="0" />
  <path
     style="fill:none;stroke:#075290;stroke-width:1px;stroke-linecap:butt;stroke-linejoin:miter;stroke-miterlimit:10;stroke-opacity:1"
     d="M 57.623073,78.871692 H 327.24172"
     id="path4877"
     inkscape:connector-curvature="0" />
  <path
     style="fill:none;stroke:#930000;stroke-width:1px;stroke-linecap:butt;stroke-linejoin:miter;stroke-miterlimit:10;stroke-opacity:1"
     d="M 249.63899,94.277086 H 394.23034"
     id="path4879"
     inkscape:connector-curvature="0" />
  <text
     id="text4597-3"
     y="444.96344"
     x="401.95511"
     style="font-style:normal;font-weight:normal;font-size:9.60000038px;line-height:1.25;font-family:sans-serif;letter-spacing:0px;word-spacing:0px;fill:#075290;fill-opacity:1;stroke:none"
     xml:space="preserve"><tspan
       style="font-style:normal;font-variant:normal;font-weight:normal;font-stretch:normal;font-family:Lato;-inkscape-font-specification:Lato;fill:#075290;fill-opacity:1"
       y="444.96344"
       x="401.95511"
       sodipodi:role="line"
       id="tspan4599-0">BRFSS</tspan></text>
  <text
     xml:space="preserve"
     style="font-style:normal;font-weight:normal;font-size:9.60000038px;line-height:1.25;font-family:sans-serif;letter-spacing:0px;word-spacing:0px;fill:#000000;fill-opacity:1;stroke:none"
     x="406.09885"
     y="268.10748"
     id="text4906"><tspan
       id="tspan4904"
       sodipodi:role="line"
       x="406.09885"
       y="268.10748"
       style="font-style:normal;font-variant:normal;font-weight:normal;font-stretch:normal;font-family:Lato;-inkscape-font-specification:Lato;fill:#930000;fill-opacity:1">ATUS</tspan></text>
  <circle
     r="3.9054241"
     cy="492.90985"
     cx="120.42392"
     id="circle4908"
     style="fill:#111111;fill-opacity:1;stroke:none;stroke-width:1;stroke-linecap:round;stroke-linejoin:round;stroke-miterlimit:10;stroke-dasharray:3, 3;stroke-dashoffset:0;stroke-opacity:1" />
</svg>
